<svg id="Layer_1" data-name="Layer 1" xmlns="http://www.w3.org/2000/svg" xmlns:xlink="http://www.w3.org/1999/xlink" viewBox="0 0 4000 3000"><defs><style>.cls-1{fill:url(#linear-gradient);}.cls-2{fill:#e6e6e6;}.cls-3{fill:#fff;}.cls-4{fill:#6c63ff;}.cls-5{fill:#2f2e41;}.cls-6{fill:#ffb8b8;}.cls-7{fill:#3f3d56;}.cls-8{opacity:0.3;isolation:isolate;}.cls-9{fill:#36344e;}.cls-10{fill:#faafb2;}.cls-11{fill:#dfdfe0;}.cls-12{fill:url(#linear-gradient-2);}.cls-13{fill:url(#linear-gradient-3);}.cls-14{fill:url(#linear-gradient-4);}</style><linearGradient id="linear-gradient" x1="1994.97" y1="2669.28" x2="1981.46" y2="-197.16" gradientUnits="userSpaceOnUse"><stop offset="0.12" stop-color="#fff"/><stop offset="1" stop-color="#fff" stop-opacity="0"/></linearGradient><linearGradient id="linear-gradient-2" x1="200.58" y1="967.86" x2="158.84" y2="506.04" gradientUnits="userSpaceOnUse"><stop offset="0" stop-color="#fff"/><stop offset="1" stop-color="#fff" stop-opacity="0"/></linearGradient><linearGradient id="linear-gradient-3" x1="334.66" y1="651.24" x2="304.63" y2="318.93" xlink:href="#linear-gradient-2"/><linearGradient id="linear-gradient-4" x1="3424.75" y1="3830.26" x2="3364.67" y2="3165.64" gradientTransform="translate(352.96 -2997.65)" xlink:href="#linear-gradient-2"/></defs><path class="cls-1" d="M3768,1071.87c17.78,57.5,50.86,167.82,44.21,310.31-7,150.1-53.42,281.75-53.42,281.75-8.36,23.7-17.87,46.06-27.84,84.55-12,46.49-27.8,107.29-27.72,188.11.13,127.54,39.16,188.27,32.4,371-1.17,31.67-8.4,227.69-145.2,351.91-105.45,95.76-237.78,103.35-347.73,108.11-146.87,6.36-188.93-29.59-558.88-117.92-277-66.13-443.82-106-646-76.91-272.34,39.15-278,155.76-615.27,220.47-103.57,19.87-276,51.28-492.22,10.26-110.71-21-314.63-62.43-497.35-230.73-56.73-52.26-182.41-170.48-235.85-369.17-17.39-64.66-63.18-234.89,12.95-399,54.9-118.34,111.7-100.92,176.76-221.41,25.28-46.82,95.06-211.69,51.27-446.07-31-165.76-98-257.92-61.91-412.81,3-12.92,6-23,6.76-25.63,16.22-53.66,61.14-155.81,207.2-273.91C1029.25,69.73,1725.74,94.89,2330.27,116.73c120.75,4.36,307.74,15.15,530.39,97.68,59.19,21.94,200.59,78.48,360.22,190.53C3351.81,496.85,3655.5,708,3768,1071.87Z"/><rect class="cls-2" x="704.21" y="281.28" width="2678.59" height="1715.49"/><rect class="cls-3" x="780.8" y="496.45" width="2525.41" height="1398.84"/><rect class="cls-4" x="703.06" y="279.77" width="2678.59" height="113.8"/><circle class="cls-3" cx="787.63" cy="337.95" r="21.09"/><circle class="cls-3" cx="867.69" cy="337.95" r="21.09"/><circle class="cls-3" cx="947.74" cy="337.95" r="21.09"/><rect class="cls-2" x="1010.27" y="641.59" width="648.91" height="1108.55"/><rect class="cls-4" x="1771.19" y="641.59" width="540.76" height="305.14"/><rect class="cls-2" x="1771.19" y="1031.71" width="540.76" height="328.32"/><rect class="cls-2" x="1771.19" y="1445" width="540.76" height="305.14"/><rect class="cls-2" x="2427.83" y="641.59" width="648.91" height="483.1"/><rect class="cls-2" x="2427.83" y="1267.04" width="648.91" height="483.1"/><path class="cls-5" d="M894.57,1323.49v-90.6c0-67.05-47.85-121.4-106.87-121.4s-106.87,54.35-106.87,121.4h0v90.6c0,9,6.43,16.3,14.35,16.31h185C888.14,1339.79,894.56,1332.5,894.57,1323.49Z"/><polygon class="cls-6" points="629.67 2502.56 667.37 2514.41 725.54 2354.88 669.91 2337.39 629.67 2502.56"/><path class="cls-5" d="M697.27,2510.64l-72.7-22.86h0l-12.66,52h0L730.37,2577h0C737.37,2548.31,722.55,2518.59,697.27,2510.64Z"/><polygon class="cls-6" points="1022.66 2535.49 1061.77 2535.49 1080.38 2364.12 1022.65 2364.12 1022.66 2535.49"/><path class="cls-5" d="M1089.71,2522.8h-75.43v53.95H1137.2C1137.2,2547,1115.94,2522.8,1089.71,2522.8Z"/><path class="cls-6" d="M1069.82,1577.75c-10.54,16.17-30.63,19.57-44.87,7.59a34.14,34.14,0,0,1-4.23-4.27l-104,53.12,9.46-66.43,97.28-40.26c13.73-12.89,34.06-10.69,45.41,4.91,9.49,13.06,9.87,31.8.92,45.34Z"/><path class="cls-5" d="M853.8,1977.25c32.66,0,66.48-5.52,94.9-22,30.51-17.3,53.29-48.24,62.88-85.41,14.81-53.27-3.86-105.6-21.92-156.21-11.19-31.36-21.76-61-24.5-90.18l-1-10.36c-4.27-46.57-8-86.78-28.38-101.86-10.59-7.82-24.82-8.26-43.52-1.36l-175.61,64.8,6.46,378.67,1.07.41C725.14,1954.14,787,1977.25,853.8,1977.25Z"/><path class="cls-4" d="M895.37,1392s-86.14-29-153.13-18.12c0,0,38.28,239.18,25.52,318.91s221.72,30.81,173.87-45.3l-16-90.6s31.9-36.24,3.19-79.73Z"/><path class="cls-5" d="M933.58,1965.91l106.15-22.61-37.06-324c-2.49-9-59.91-214.34-86-225.44a402.75,402.75,0,0,0-58-18.29l-3.77-.86L876.24,1411,961,1641.66Z"/><path class="cls-5" d="M993.05,2495.79l137.16-26-77-357.05L938.7,1624.48l-1.13,8.67c-.09.64-10.79,64.43-169.56,36.13l-1.4-.25-.39,1.54L574.33,2440.82l156.29,29.59,142.54-562Z"/><path class="cls-5" d="M819.58,2030.71l-.09-2.74c-.09-3-9.53-305.77-6.38-427.52,3.16-122.16-31.65-228-32-229l-.29-.85-.77-.25c-45-14.62-84.12,29-84.51,29.46l-.55.62,12.83,120.23L652.9,1957.86Z"/><ellipse class="cls-6" cx="809.66" cy="1248.68" rx="78.36" ry="89.01"/><path class="cls-5" d="M919.85,1240.14c-.05-53-37.87-96-84.54-96H819.36c-46.67.06-84.49,43-84.54,96V1242h33.71l11.5-36.57,2.3,36.57h17.42l5.8-18.45,1.16,18.45H919.85Z"/><path class="cls-5" d="M790.68,1350a17.91,17.91,0,0,0,1.13-17.06c-16.91-36.52-40.57-104-9.16-145.63l2.26-3h-91.2v155.54l82.85,16.61a12.79,12.79,0,0,0,2.54.25A13.82,13.82,0,0,0,790.68,1350Z"/><path class="cls-7" d="M1221.25,736.27c205.49-173.39,512.63-147.37,686,58.11s147.38,512.64-58.11,686c-192.2,162.19-476.31,151.28-655.51-25.17L596.49,1959.12a44.86,44.86,0,1,1-57.93-68.51l.07-.06,597.15-503.88C992,1180.34,1029.06,898.46,1221.25,736.27Zm38.49,601.88c129.91,154,360,173.45,514,43.54s173.45-360,43.54-514-360-173.45-514-43.54h0c-154,129.9-173.45,360-43.55,514Z"/><path class="cls-8" d="M1773.72,1381.7c145.08-122.44,172-335.69,61.89-490.33q10.46,10.53,20.23,22.07c129.9,154,110.41,384.06-43.55,514s-384.07,110.41-514-43.54q-9.75-11.55-18.35-23.65C1413.89,1494.77,1628.62,1504.11,1773.72,1381.7Z"/><path class="cls-6" d="M797,1733.36c-17.21,4.78-34.57-7.2-38.78-26.75a40.9,40.9,0,0,1-.85-6.35L647.5,1665.62l44.65-44.22,97.47,39.67c17.81.06,32.21,16.51,32.16,36.75C821.74,1714.75,811.48,1729.44,797,1733.36Z"/><path class="cls-5" d="M755.49,1715l6.68-72.14-91.76-57.51,59.83-82.26-9.77-92.42-24.3-11.83-.76,1.1c-11.46,16.75-112,164.1-112,182.32,0,18.71,19.23,73.65,45.54,88.6,25.38,14.41,120.69,42.43,124.73,43.62Z"/><path class="cls-9" d="M3251.5,1091.9s-63.64,7.18-67.75,105.72c-3.42,82.12-10.4,127.88,23,145,11.94,6.12,26,6.66,38.74,2.46l136.37-44.83s2-147.81-45.16-183.74-85.2-24.63-85.2-24.63Z"/><polygon class="cls-10" points="3326.68 1318.41 3257.66 1341.1 3257.66 1241.76 3320.27 1241.76 3326.68 1318.41"/><path id="uuid-4eda5a58-6320-4b96-8c61-04382cd36dce-487" class="cls-10" d="M3115.7,1882.38c-3.74,22.76-18.92,39.08-33.9,36.45s-24.1-23.2-20.35-46a55.6,55.6,0,0,1,10.51-25.14l17.11-96.22,46.55,9.74-21.81,93.82a56.37,56.37,0,0,1,1.89,27.32Z"/><polygon class="cls-10" points="3273.72 2522.25 3209.07 2522.25 3171.58 2176.85 3271.5 2176.85 3273.72 2522.25"/><path class="cls-9" d="M3146.12,2577.77c-6.8,0-12.85-.17-17.41-.59-17.18-1.58-33.56-14.25-41.79-21.66a11.72,11.72,0,0,1-3-13.22h0a11.65,11.65,0,0,1,7.57-6.71l45.37-13,73.47-49.57.82,1.47c.3.55,7.52,13.54,9.93,22.33.92,3.34.68,6.13-.72,8.27a7.9,7.9,0,0,1-3.4,2.86c1.33,1.39,5.5,4.21,18.33,6.26,18.76,3,22.68-16.44,22.84-17.27l.12-.65.56-.36c8.92-5.74,14.4-8.36,16.3-7.8,1.19.36,3.16.94,8.48,53.84.54,1.66,4.27,13.83,1.73,25.47-2.76,12.67-58.07,8.31-69.13,7.31C3215.91,2574.82,3174.5,2577.77,3146.12,2577.77Z"/><polygon class="cls-10" points="3419.75 2522.25 3355.11 2522.25 3317.62 2176.85 3417.54 2176.85 3419.75 2522.25"/><path class="cls-9" d="M3292.15,2577.77c-6.8,0-12.84-.17-17.4-.59-17.18-1.58-33.56-14.25-41.79-21.66a11.7,11.7,0,0,1-3-13.22h0a11.65,11.65,0,0,1,7.57-6.71l45.37-13,73.46-49.57.82,1.47c.31.55,7.52,13.54,9.94,22.33.92,3.34.68,6.13-.72,8.27a7.9,7.9,0,0,1-3.4,2.86c1.33,1.39,5.5,4.21,18.33,6.26,18.75,3,22.68-16.44,22.84-17.27l.12-.65.56-.36c8.92-5.75,14.41-8.35,16.3-7.8,1.18.36,3.16.94,8.48,53.84.54,1.66,4.27,13.83,1.73,25.47-2.76,12.67-58.08,8.31-69.14,7.31C3362,2574.82,3320.53,2577.77,3292.15,2577.77Z"/><polygon class="cls-11" points="3438.35 1673.9 3124.25 1673.9 3237.16 1302.32 3362.39 1302.32 3438.35 1673.9"/><path class="cls-11" d="M3256.92,1302.38s-78-2.05-86.23,18.48S3066,1830,3066,1830h63.65Z"/><circle class="cls-10" cx="3266.2" cy="1200.49" r="68.77"/><path class="cls-9" d="M3247.39,1117.56s-37.85,153.67,4.24,225.53l-59.28-12.59s-23-168.21,23.22-198.79Z"/><path class="cls-9" d="M3373.07,1673.9H3167l-112.79,462.87a40,40,0,0,0,29.32,42.88c61.89,16.57,210.35,40,435.08-25.35a40.11,40.11,0,0,0,27.11-50.58l-172.6-429.82Z"/><path class="cls-11" d="M3289.73,1302.32l64.12-2.82a88,88,0,0,1,67.75,40.74c45.29,71.6,130.07,222.55,54.38,243.23-99.74,27.25-148.08-124.42-148.08-124.42l-38.17-156.73Z"/><path id="uuid-c6b4a34a-6b5e-4c42-b21b-879ce560fe33-488" class="cls-10" d="M3267.73,1347.29c-13.18-18.93-13.65-41.22-1.07-49.77s33.45-.14,46.63,18.81a55.68,55.68,0,0,1,10,25.36l54.75,81-40.18,25.44-49.71-82.5a56.46,56.46,0,0,1-20.39-18.29Z"/><polygon class="cls-11" points="3300.14 1412.77 3345.39 1371.13 3434.85 1454.42 3351.65 1511.29 3300.14 1412.77"/><rect class="cls-12" x="63.43" y="575.83" width="223.66" height="223.66" rx="111.83"/><rect class="cls-13" x="235.97" y="369.15" width="160.94" height="160.94" rx="80.47"/><rect class="cls-14" x="3580.32" y="268.43" width="321.88" height="321.88" rx="160.94" transform="matrix(1, 0.06, -0.06, 1, 35.15, -238.55)"/><rect class="cls-3" x="154.77" y="2663.2" width="225.32" height="225.32" rx="112.66" transform="translate(3043.29 2508.43) rotate(90)"/></svg>